<?xml version="1.0" encoding="UTF-8"?>
<svg version="1.1" xmlns="http://www.w3.org/2000/svg" width="241" height="241">
<path d="M0 0 C1.03568115 0.32145996 1.03568115 0.32145996 2.09228516 0.64941406 C17.75935338 5.6943055 31.40806615 13.46914995 44 24 C44.94617188 24.78117187 45.89234375 25.56234375 46.8671875 26.3671875 C68.76617987 45.2884132 81.84750392 72.5964061 86 101 C86.92120292 117.78622317 87.04227834 134.83324305 82 151 C81.78569336 151.6904541 81.57138672 152.3809082 81.35058594 153.09228516 C76.3056945 168.75935338 68.53085005 182.40806615 58 195 C57.21882812 195.94617188 56.43765625 196.89234375 55.6328125 197.8671875 C36.7115868 219.76617987 9.4035939 232.84750392 -19 237 C-35.78622317 237.92120292 -52.83324305 238.04227834 -69 233 C-69.6904541 232.78569336 -70.3809082 232.57138672 -71.09228516 232.35058594 C-86.75935338 227.3056945 -100.40806615 219.53085005 -113 209 C-113.94617188 208.21882812 -114.89234375 207.43765625 -115.8671875 206.6328125 C-137.76617987 187.7115868 -150.84750392 160.4035939 -155 132 C-155.92120292 115.21377683 -156.04227834 98.16675695 -151 82 C-150.78569336 81.3095459 -150.57138672 80.6190918 -150.35058594 79.90771484 C-145.3056945 64.24064662 -137.53085005 50.59193385 -127 38 C-125.82824219 36.58074219 -125.82824219 36.58074219 -124.6328125 35.1328125 C-95.03653043 0.87875489 -43.17279533 -13.46523928 0 0 Z " fill="#F7FEF4" transform="translate(155,4)"/>
<path d="M0 0 C10.19890383 6.13566055 19.34411562 14.75921565 28.125 22.75 C31.03031519 25.32572061 34.06366149 27.34934879 37.375 29.375 C43.20635835 32.98834515 48.11593027 37.19746733 53 42 C53.69996094 42.68707031 54.39992187 43.37414062 55.12109375 44.08203125 C60.55434843 49.79065556 69 59.76486978 69 68 C69.66 68 70.32 68 71 68 C71.4021875 66.6078125 71.4021875 66.6078125 71.8125 65.1875 C72.9119551 62.23633103 73.48794485 60.80867971 76 59 C76.99 59 77.98 59 79 59 C81.77992412 63.91747533 81.8496314 68.8316971 80.39453125 74.2578125 C79.23436693 77.44973666 77.88539612 80.17190582 76 83 C75.85778935 85.60245498 75.81197068 88.09117684 75.875 90.6875 C75.88402344 91.38939453 75.89304688 92.09128906 75.90234375 92.81445312 C75.92586296 94.54311525 75.96173287 96.27160145 76 98 C76.845625 97.195625 77.69125 96.39125 78.5625 95.5625 C81.8515158 92.78371338 84.68629604 92.25882224 89 92 C89.10839231 98.68935417 87.57512503 102.52517605 82.97265625 107.3828125 C81 109 81 109 77.3125 110.25 C73.16255861 112.44242187 73.00551386 113.83305325 71.5625 118.1875 C71.01526402 120.1177089 70.4858851 122.05344168 70 124 C70.825 123.505 71.65 123.01 72.5 122.5 C76.75488188 120.67647919 79.42308671 120.76326311 84 121 C84.6875 122.74609375 84.6875 122.74609375 85 125 C81.69333771 130.66701005 77.17785118 134.09912272 71 136 C70.01 136 69.02 136 68 136 C68.34933594 136.89203125 68.69867188 137.7840625 69.05859375 138.703125 C69.51363281 139.87359375 69.96867188 141.0440625 70.4375 142.25 C70.88996094 143.41015625 71.34242188 144.5703125 71.80859375 145.765625 C74.31347951 152.56577387 75.47753211 159.90375781 72.8125 166.875 C70.77279297 170.39173625 69.60091428 172.08462006 66 174 C60.31113866 175.14574265 56.06489895 174.46367428 51.1875 171.3125 C48.60869992 169.40564078 46.3577448 167.4180096 44.1875 165.0625 C43.465625 164.381875 42.74375 163.70125 42 163 C37.93155548 163.38022846 34.20581432 165.68885158 30.5625 167.4375 C28.04712937 168.6370622 25.52707643 169.82530151 23 171 C22.22527344 171.36222656 21.45054687 171.72445312 20.65234375 172.09765625 C12.59052224 174.84033779 4.58733092 175.35891501 -3.875 175.3125 C-4.93493164 175.30758545 -5.99486328 175.3026709 -7.08691406 175.29760742 C-14.43309054 175.18731296 -21.07526101 174.6085628 -28 172 C-28.98613281 171.64808594 -29.97226563 171.29617187 -30.98828125 170.93359375 C-46.23980673 165.06165954 -61.78824346 154.18116178 -69.875 139.625 C-72.62102336 136.2328535 -74.59649441 136.17238946 -78.7578125 135.4765625 C-84.70847712 134.21178709 -88.69406607 129.80863116 -92 125 C-91.62890625 122.8125 -91.62890625 122.8125 -91 121 C-90.38511719 121.0721875 -89.77023438 121.144375 -89.13671875 121.21875 C-88.32847656 121.3115625 -87.52023438 121.404375 -86.6875 121.5 C-85.88699219 121.5928125 -85.08648437 121.685625 -84.26171875 121.78125 C-81.88103445 122.04813463 -81.88103445 122.04813463 -79 122 C-79.66 118.37 -80.32 114.74 -81 111 C-81.825 111.020625 -82.65 111.04125 -83.5 111.0625 C-88.86762613 109.43304207 -91.7913303 105.48057481 -95 101 C-97.09457093 96.58318739 -97.09457093 96.58318739 -96.625 93.6875 C-96.41875 93.130625 -96.2125 92.57375 -96 92 C-90.2902045 92.41778991 -87.39042858 94.57546571 -83 98 C-82.48078615 89.34643585 -82.38576708 82.97199155 -86.87890625 75.34765625 C-88.77711827 71.37265477 -88.71581828 67.29490969 -88 63 C-86.97265625 60.7109375 -86.97265625 60.7109375 -86 59 C-83.46089803 59.38520564 -82.27248877 59.70097943 -80.515625 61.62890625 C-79.88914062 62.58603516 -79.88914062 62.58603516 -79.25 63.5625 C-78.82203125 64.20316406 -78.3940625 64.84382813 -77.953125 65.50390625 C-77.63859375 65.99761719 -77.3240625 66.49132812 -77 67 C-76.68289062 66.28457031 -76.36578125 65.56914063 -76.0390625 64.83203125 C-68.50923925 48.75315454 -57.56270223 37.26468408 -42.80834961 27.43554688 C-39.22493008 24.99728982 -36.23067592 22.3878204 -33.25 19.25 C-28.882009 14.66577182 -24.14883308 10.82879223 -19.125 7 C-18.38668945 6.43571289 -17.64837891 5.87142578 -16.88769531 5.29003906 C-6.59323989 -2.45558283 -6.59323989 -2.45558283 0 0 Z " fill="#493229" transform="translate(124,32)"/>
<path d="M0 0 C0.99 0.495 0.99 0.495 2 1 C0.52232987 4.73091297 -1.39028344 6.2245699 -4.6875 8.4375 C-15.54293207 16.11262971 -25.25753528 25.08861374 -34.6875 34.4375 C-35.35869873 35.09943359 -36.02989746 35.76136719 -36.72143555 36.44335938 C-40.32765815 40.07302587 -43.33228299 43.63034707 -46 48 C-41.71 48.66 -37.42 49.32 -33 50 C-33 50.33 -33 50.66 -33 51 C-35.43816585 51.0809723 -37.87364384 51.14046972 -40.3125 51.1875 C-41.00279297 51.21263672 -41.69308594 51.23777344 -42.40429688 51.26367188 C-47.55674183 51.33834499 -47.55674183 51.33834499 -49.98046875 49.48828125 C-50.31691406 48.99714844 -50.65335938 48.50601563 -51 48 C-57.98751621 55.83706225 -62.6876636 65.06299081 -66 75 C-65.21625 74.505 -64.4325 74.01 -63.625 73.5 C-58.95078158 71.56584065 -54.98557619 71.73397123 -50 72 C-49.67 72.99 -49.34 73.98 -49 75 C-51.83077013 80.30461708 -56.38276249 83.08285247 -61.75390625 85.37109375 C-64 86 -64 86 -69 86 C-69 89.96 -69 93.92 -69 98 C-67.7625 96.865625 -66.525 95.73125 -65.25 94.5625 C-62.58712749 92.12153353 -60.65628954 90.43716505 -57 90 C-56 91 -56 91 -55.9453125 92.78515625 C-56.5086232 99.92450705 -58.86395721 105.13276088 -64.1875 110 C-66 111 -66 111 -68 111 C-67.5247412 112.64696604 -67.04468109 114.29254728 -66.5625 115.9375 C-66.29566406 116.85402344 -66.02882813 117.77054687 -65.75390625 118.71484375 C-65.20973949 120.9402493 -65.20973949 120.9402493 -64 122 C-63.66226563 121.44570312 -63.32453125 120.89140625 -62.9765625 120.3203125 C-62.53054687 119.59585938 -62.08453125 118.87140625 -61.625 118.125 C-60.96371094 117.04605469 -60.96371094 117.04605469 -60.2890625 115.9453125 C-59 114 -59 114 -57 112 C-54.875 112.375 -54.875 112.375 -53 113 C-52.45206438 126.67809657 -52.45206438 126.67809657 -56 132 C-56.391875 132.78375 -56.78375 133.5675 -57.1875 134.375 C-57.455625 134.91125 -57.72375 135.4475 -58 136 C-56.515 137.98 -56.515 137.98 -55 140 C-54.87995605 139.45698242 -54.75991211 138.91396484 -54.63623047 138.35449219 C-51.31987877 123.61029828 -48.19475633 110.0249686 -36 100 C-35.34 99.67 -34.68 99.34 -34 99 C-34.70125 98.93683594 -35.4025 98.87367188 -36.125 98.80859375 C-43.55094793 97.85008145 -48.14372301 95.78778792 -53 90 C-54.5 87.0625 -54.5 87.0625 -55 85 C-53.46876315 83.46876315 -52.06787176 83.75692893 -49.9375 83.6875 C-44.73177628 83.71252752 -41.45482826 85.40809992 -37 88 C-36.68546875 87.32453125 -36.3709375 86.6490625 -36.046875 85.953125 C-31.79613357 77.09314587 -31.79613357 77.09314587 -28 74 C-25 75 -25 75 -24 77 C-23.18891697 84.15348642 -24.35348762 88.84651037 -28 95 C-24.7 94.01 -21.4 93.02 -18 92 C-18.33 92.66 -18.66 93.32 -19 94 C-17.515 94.495 -17.515 94.495 -16 95 C-15.08723369 97.25325403 -14.54218478 99.51709989 -13.94140625 101.87109375 C-12.74781868 104.57028555 -11.69950912 104.95047122 -9 106 C-8.01 106.515625 -7.02 107.03125 -6 107.5625 C0.04739264 110.46020897 6.07269848 110.98034895 12.59765625 109.3515625 C18.64390872 107.21759104 22.53804534 104.42292199 26 99 C27.37050596 96.25452126 27.37050596 96.25452126 28 94 C30.97 94.66 33.94 95.32 37 96 C36.52202924 98.41690876 36.0426678 100.83352763 35.5625 103.25 C35.36043945 104.27287109 35.36043945 104.27287109 35.15429688 105.31640625 C33.28338068 114.71661932 33.28338068 114.71661932 30 118 C29.835 118.680625 29.67 119.36125 29.5 120.0625 C29 122 29 122 26 124 C26 125.32 26 126.64 26 128 C29.3 128 32.6 128 36 128 C36.33 128.99 36.66 129.98 37 131 C33.7 131.33 30.4 131.66 27 132 C27 133.32 27 134.64 27 136 C28.794375 135.62875 28.794375 135.62875 30.625 135.25 C34.09862526 134.8203997 34.94604996 134.97302498 38.25 136.625 C40.88938054 138.90446501 42.96158473 141.17757886 45 144 C48.32164605 142.26425255 48.32164605 142.26425255 48.875 138.6875 C49.01598085 134.52856494 48.15045439 133.40488611 46 130 C46.3125 127.1875 46.3125 127.1875 47 125 C49 127 49 127 50 130 C51.64821244 131.03013277 53.32111559 132.02065076 55 133 C57.25886138 134.90284519 59.50369858 136.8157623 61.71875 138.76953125 C62.4715625 139.17558594 63.224375 139.58164063 64 140 C66.61697286 139.26883952 66.61697286 139.26883952 69 138 C69.99 138 70.98 138 72 138 C70.68 139.98 69.36 141.96 68 144 C68.99 144.33 69.98 144.66 71 145 C71 145.99 71 146.98 71 148 C67.05796807 147.39425041 64.58356111 145.42953645 61.4375 143.0625 C58.6518585 140.97988335 55.89442894 138.92961929 53 137 C52.9175 137.9075 52.835 138.815 52.75 139.75 C51.89232474 143.4665928 50.9858613 144.69662128 48 147 C46.67769386 147.3746937 45.34455815 147.7153032 44 148 C53.65903475 162.32347932 53.65903475 162.32347932 68.140625 170.4140625 C70.09375 170.609375 72.046875 170.8046875 74 171 C73.67 171.99 73.34 172.98 73 174 C66.52248868 174.7066376 63.29771683 173.46678019 58.0390625 169.671875 C56.26791075 168.21966629 54.73074014 166.74775611 53.1875 165.0625 C52.465625 164.381875 51.74375 163.70125 51 163 C46.93155548 163.38022846 43.20581432 165.68885158 39.5625 167.4375 C37.04712937 168.6370622 34.52707643 169.82530151 32 171 C31.22527344 171.36222656 30.45054687 171.72445312 29.65234375 172.09765625 C21.59052224 174.84033779 13.58733092 175.35891501 5.125 175.3125 C4.06506836 175.30758545 3.00513672 175.3026709 1.91308594 175.29760742 C-5.43309054 175.18731296 -12.07526101 174.6085628 -19 172 C-19.98613281 171.64808594 -20.97226563 171.29617187 -21.98828125 170.93359375 C-37.23980673 165.06165954 -52.78824346 154.18116178 -60.875 139.625 C-63.62102336 136.2328535 -65.59649441 136.17238946 -69.7578125 135.4765625 C-75.70847712 134.21178709 -79.69406607 129.80863116 -83 125 C-82.62890625 122.8125 -82.62890625 122.8125 -82 121 C-81.38511719 121.0721875 -80.77023438 121.144375 -80.13671875 121.21875 C-79.32847656 121.3115625 -78.52023438 121.404375 -77.6875 121.5 C-76.88699219 121.5928125 -76.08648437 121.685625 -75.26171875 121.78125 C-72.88103445 122.04813463 -72.88103445 122.04813463 -70 122 C-70.66 118.37 -71.32 114.74 -72 111 C-72.825 111.020625 -73.65 111.04125 -74.5 111.0625 C-79.86762613 109.43304207 -82.7913303 105.48057481 -86 101 C-88.09457093 96.58318739 -88.09457093 96.58318739 -87.625 93.6875 C-87.41875 93.130625 -87.2125 92.57375 -87 92 C-81.2902045 92.41778991 -78.39042858 94.57546571 -74 98 C-73.48078615 89.34643585 -73.38576708 82.97199155 -77.87890625 75.34765625 C-79.77711827 71.37265477 -79.71581828 67.29490969 -79 63 C-77.97265625 60.7109375 -77.97265625 60.7109375 -77 59 C-74.46089803 59.38520564 -73.27248877 59.70097943 -71.515625 61.62890625 C-70.88914062 62.58603516 -70.88914062 62.58603516 -70.25 63.5625 C-69.82203125 64.20316406 -69.3940625 64.84382813 -68.953125 65.50390625 C-68.63859375 65.99761719 -68.3240625 66.49132812 -68 67 C-67.68289062 66.28457031 -67.36578125 65.56914063 -67.0390625 64.83203125 C-59.50923925 48.75315454 -48.56270223 37.26468408 -33.80834961 27.43554688 C-30.22493008 24.99728982 -27.23067592 22.3878204 -24.25 19.25 C-17.44584766 12.09662792 -8.87034587 4.43517293 0 0 Z " fill="#519739" transform="translate(115,32)"/>
<path d="M0 0 C0.99 0.495 0.99 0.495 2 1 C0.52232987 4.73091297 -1.39028344 6.2245699 -4.6875 8.4375 C-15.54293207 16.11262971 -25.25753528 25.08861374 -34.6875 34.4375 C-35.35869873 35.09943359 -36.02989746 35.76136719 -36.72143555 36.44335938 C-40.32765815 40.07302587 -43.33228299 43.63034707 -46 48 C-41.71 48.66 -37.42 49.32 -33 50 C-33 50.33 -33 50.66 -33 51 C-35.43816585 51.0809723 -37.87364384 51.14046972 -40.3125 51.1875 C-41.00279297 51.21263672 -41.69308594 51.23777344 -42.40429688 51.26367188 C-47.55674183 51.33834499 -47.55674183 51.33834499 -49.98046875 49.48828125 C-50.31691406 48.99714844 -50.65335938 48.50601563 -51 48 C-57.98751621 55.83706225 -62.6876636 65.06299081 -66 75 C-65.21625 74.505 -64.4325 74.01 -63.625 73.5 C-58.95078158 71.56584065 -54.98557619 71.73397123 -50 72 C-49.67 72.99 -49.34 73.98 -49 75 C-51.83077013 80.30461708 -56.38276249 83.08285247 -61.75390625 85.37109375 C-64 86 -64 86 -69 86 C-69 89.96 -69 93.92 -69 98 C-67.7625 96.865625 -66.525 95.73125 -65.25 94.5625 C-62.58712749 92.12153353 -60.65628954 90.43716505 -57 90 C-56 91 -56 91 -55.9453125 92.78515625 C-56.5086232 99.92450705 -58.86395721 105.13276088 -64.1875 110 C-66 111 -66 111 -68 111 C-67.5247412 112.64696604 -67.04468109 114.29254728 -66.5625 115.9375 C-66.29566406 116.85402344 -66.02882813 117.77054687 -65.75390625 118.71484375 C-65.20973949 120.9402493 -65.20973949 120.9402493 -64 122 C-63.66226563 121.44570312 -63.32453125 120.89140625 -62.9765625 120.3203125 C-62.53054687 119.59585938 -62.08453125 118.87140625 -61.625 118.125 C-60.96371094 117.04605469 -60.96371094 117.04605469 -60.2890625 115.9453125 C-59 114 -59 114 -57 112 C-54.875 112.375 -54.875 112.375 -53 113 C-52.45206438 126.67809657 -52.45206438 126.67809657 -56 132 C-56.391875 132.78375 -56.78375 133.5675 -57.1875 134.375 C-57.455625 134.91125 -57.72375 135.4475 -58 136 C-56.515 137.98 -56.515 137.98 -55 140 C-54.87995605 139.45698242 -54.75991211 138.91396484 -54.63623047 138.35449219 C-51.31987877 123.61029828 -48.19475633 110.0249686 -36 100 C-35.34 99.67 -34.68 99.34 -34 99 C-34.70125 98.93683594 -35.4025 98.87367188 -36.125 98.80859375 C-43.55094793 97.85008145 -48.14372301 95.78778792 -53 90 C-54.5 87.0625 -54.5 87.0625 -55 85 C-53.46876315 83.46876315 -52.06787176 83.75692893 -49.9375 83.6875 C-44.73177628 83.71252752 -41.45482826 85.40809992 -37 88 C-36.68546875 87.32453125 -36.3709375 86.6490625 -36.046875 85.953125 C-31.79613357 77.09314587 -31.79613357 77.09314587 -28 74 C-25 75 -25 75 -24 77 C-23.18891697 84.15348642 -24.35348762 88.84651037 -28 95 C-24.535 94.505 -24.535 94.505 -21 94 C-22 97 -22 97 -24.44140625 98.2890625 C-25.47136719 98.72992188 -26.50132813 99.17078125 -27.5625 99.625 C-37.18483216 104.28760276 -42.22275062 110.82816381 -45.96875 120.75 C-47.77251172 126.43458238 -49.04070246 132.11724894 -50 138 C-50.1753125 138.84820312 -50.350625 139.69640625 -50.53125 140.5703125 C-50.84747166 143.09130188 -50.8462372 144.59632626 -50 147 C-44.83179791 153.28167652 -37.82638553 157.7059833 -31 162 C-31 155.07 -31 148.14 -31 141 C-30.01 141 -29.02 141 -28 141 C-27.505 152.385 -27.505 152.385 -27 164 C-24.7725 164.804375 -22.545 165.60875 -20.25 166.4375 C-19.55551758 166.68943115 -18.86103516 166.9413623 -18.14550781 167.20092773 C-13.31091294 168.93683463 -9.38575692 170.13802584 -4.25 170.0625 C-3.45078125 170.05347656 -2.6515625 170.04445312 -1.828125 170.03515625 C-1.22484375 170.02355469 -0.6215625 170.01195312 0 170 C-0.9384375 169.39671875 -1.876875 168.7934375 -2.84375 168.171875 C-4.06297955 167.36530776 -5.28170367 166.55797615 -6.5 165.75 C-7.12003906 165.35425781 -7.74007812 164.95851562 -8.37890625 164.55078125 C-10.15625 163.359375 -10.15625 163.359375 -13 161 C-13 159.68 -13 158.36 -13 157 C-10.24775762 158.2924687 -7.9192596 159.7245977 -5.53125 161.6015625 C4.38277737 169.20475056 4.38277737 169.20475056 16.546875 170.58203125 C18.95379521 170.0109626 20.85506687 169.21780082 23 168 C22.67 167.34 22.34 166.68 22 166 C21.36114723 158.45662301 22.25719558 151.81620661 24.44140625 144.59375 C25.02656164 141.87666485 24.8925056 140.58443338 24 138 C22.65940367 132.63761468 22.65940367 132.63761468 24.16015625 129.828125 C26 128 26 128 28.48046875 127.609375 C29.37378906 127.65578125 30.26710938 127.7021875 31.1875 127.75 C32.08855469 127.78609375 32.98960937 127.8221875 33.91796875 127.859375 C34.60503906 127.90578125 35.29210937 127.9521875 36 128 C36.33 128.99 36.66 129.98 37 131 C33.7 131.33 30.4 131.66 27 132 C27 133.32 27 134.64 27 136 C28.794375 135.62875 28.794375 135.62875 30.625 135.25 C34.09862526 134.8203997 34.94604996 134.97302498 38.25 136.625 C40.88938054 138.90446501 42.96158473 141.17757886 45 144 C48.32164605 142.26425255 48.32164605 142.26425255 48.875 138.6875 C49.01598085 134.52856494 48.15045439 133.40488611 46 130 C46.3125 127.1875 46.3125 127.1875 47 125 C49 127 49 127 50 130 C51.64821244 131.03013277 53.32111559 132.02065076 55 133 C57.25886138 134.90284519 59.50369858 136.8157623 61.71875 138.76953125 C62.4715625 139.17558594 63.224375 139.58164063 64 140 C66.61697286 139.26883952 66.61697286 139.26883952 69 138 C69.99 138 70.98 138 72 138 C70.68 139.98 69.36 141.96 68 144 C68.99 144.33 69.98 144.66 71 145 C71 145.99 71 146.98 71 148 C67.05796807 147.39425041 64.58356111 145.42953645 61.4375 143.0625 C58.6518585 140.97988335 55.89442894 138.92961929 53 137 C52.9175 137.9075 52.835 138.815 52.75 139.75 C51.89232474 143.4665928 50.9858613 144.69662128 48 147 C46.67769386 147.3746937 45.34455815 147.7153032 44 148 C53.65903475 162.32347932 53.65903475 162.32347932 68.140625 170.4140625 C70.09375 170.609375 72.046875 170.8046875 74 171 C73.67 171.99 73.34 172.98 73 174 C66.52248868 174.7066376 63.29771683 173.46678019 58.0390625 169.671875 C56.26791075 168.21966629 54.73074014 166.74775611 53.1875 165.0625 C52.465625 164.381875 51.74375 163.70125 51 163 C46.93155548 163.38022846 43.20581432 165.68885158 39.5625 167.4375 C37.04712937 168.6370622 34.52707643 169.82530151 32 171 C31.22527344 171.36222656 30.45054687 171.72445312 29.65234375 172.09765625 C21.59052224 174.84033779 13.58733092 175.35891501 5.125 175.3125 C4.06506836 175.30758545 3.00513672 175.3026709 1.91308594 175.29760742 C-5.43309054 175.18731296 -12.07526101 174.6085628 -19 172 C-19.98613281 171.64808594 -20.97226563 171.29617187 -21.98828125 170.93359375 C-37.23980673 165.06165954 -52.78824346 154.18116178 -60.875 139.625 C-63.62102336 136.2328535 -65.59649441 136.17238946 -69.7578125 135.4765625 C-75.70847712 134.21178709 -79.69406607 129.80863116 -83 125 C-82.62890625 122.8125 -82.62890625 122.8125 -82 121 C-81.38511719 121.0721875 -80.77023438 121.144375 -80.13671875 121.21875 C-79.32847656 121.3115625 -78.52023438 121.404375 -77.6875 121.5 C-76.88699219 121.5928125 -76.08648437 121.685625 -75.26171875 121.78125 C-72.88103445 122.04813463 -72.88103445 122.04813463 -70 122 C-70.66 118.37 -71.32 114.74 -72 111 C-72.825 111.020625 -73.65 111.04125 -74.5 111.0625 C-79.86762613 109.43304207 -82.7913303 105.48057481 -86 101 C-88.09457093 96.58318739 -88.09457093 96.58318739 -87.625 93.6875 C-87.41875 93.130625 -87.2125 92.57375 -87 92 C-81.2902045 92.41778991 -78.39042858 94.57546571 -74 98 C-73.48078615 89.34643585 -73.38576708 82.97199155 -77.87890625 75.34765625 C-79.77711827 71.37265477 -79.71581828 67.29490969 -79 63 C-77.97265625 60.7109375 -77.97265625 60.7109375 -77 59 C-74.46089803 59.38520564 -73.27248877 59.70097943 -71.515625 61.62890625 C-70.88914062 62.58603516 -70.88914062 62.58603516 -70.25 63.5625 C-69.82203125 64.20316406 -69.3940625 64.84382813 -68.953125 65.50390625 C-68.63859375 65.99761719 -68.3240625 66.49132812 -68 67 C-67.68289062 66.28457031 -67.36578125 65.56914063 -67.0390625 64.83203125 C-59.50923925 48.75315454 -48.56270223 37.26468408 -33.80834961 27.43554688 C-30.22493008 24.99728982 -27.23067592 22.3878204 -24.25 19.25 C-17.44584766 12.09662792 -8.87034587 4.43517293 0 0 Z " fill="#49332A" transform="translate(115,32)"/>
<path d="M0 0 C17.79763219 10.56282236 35.24169691 27.61496368 49 43 C49 43.66 49 44.32 49 45 C32.43369391 47.54969149 15.5652687 47.1580797 -1.14941406 47.13037109 C-4.99287866 47.12500993 -8.83622643 47.13034729 -12.6796875 47.13671875 C-23.35675965 47.13999033 -34.02325837 47.12755431 -44.6875 46.5546875 C-45.41799561 46.51594513 -46.14849121 46.47720276 -46.90112305 46.43728638 C-51.73543776 46.13228112 -51.73543776 46.13228112 -54 45 C-47.46692436 30.92168207 -31.13780285 18.26950362 -19 9 C-18.47180664 8.59491211 -17.94361328 8.18982422 -17.39941406 7.77246094 C-5.26931286 -1.51099655 -5.26931286 -1.51099655 0 0 Z " fill="#FDBE35" transform="translate(123,35)"/>
<path d="M0 0 C0.33 0.99 0.66 1.98 1 3 C14.365 4.485 14.365 4.485 28 6 C29 13 29 13 27 16 C26.4161804 18.9149255 26.4161804 18.9149255 27 22 C27.763125 22.721875 28.52625 23.44375 29.3125 24.1875 C32.70259254 27.73527126 33.15048259 30.72570539 34.23828125 35.41015625 C35.17021952 38.57874638 36.8855623 40.50798414 39 43 C38.75 45.3125 38.75 45.3125 38 47 C37.67 46.01 37.34 45.02 37 44 C36.08476563 44.37253906 35.16953125 44.74507812 34.2265625 45.12890625 C33.03804687 45.60199219 31.84953125 46.07507813 30.625 46.5625 C28.84996094 47.27599609 28.84996094 47.27599609 27.0390625 48.00390625 C24 49 24 49 22 48 C22.66 46.88625 23.32 45.7725 24 44.625 C26.44047088 39.79579967 26.60353793 35.32300663 26 30 C25.505 29.01 25.505 29.01 25 28 C20.76248146 29.51339948 19.19812764 32.18991209 17 36 C15.75675853 39.2249208 15.75675853 39.2249208 15 42 C14.45472656 41.71125 13.90945312 41.4225 13.34765625 41.125 C7.56777631 38.27952064 3.42432498 37.59210635 -3 38 C-1.85015163 42.34387162 0.33025381 44.91169052 3.71484375 47.70703125 C8.09943463 50.18788524 13.05244831 50.5288046 18 51 C17.319375 51.66 16.63875 52.32 15.9375 53 C14.95623633 53.99794237 13.97731531 54.99819057 13 56 C12.43410156 56.55816406 11.86820313 57.11632812 11.28515625 57.69140625 C1.72672829 67.70997736 -0.39111348 80.88269345 -3 94 C-4.65 92.35 -6.3 90.7 -8 89 C-6.87567925 86.7513585 -5.77398486 84.66097729 -4.375 82.5625 C-2.27823238 77.12996572 -2.76937177 71.75716405 -3 66 C-5.8842454 66.34485543 -6.8207818 66.78255407 -8.703125 69.06640625 C-9.21359375 69.89011719 -9.7240625 70.71382813 -10.25 71.5625 C-10.77078125 72.38878906 -11.2915625 73.21507812 -11.828125 74.06640625 C-12.21484375 74.70449219 -12.6015625 75.34257812 -13 76 C-15.42130331 73.57869669 -15.52840504 72.19888623 -16.125 68.875 C-16.29257812 67.96492188 -16.46015625 67.05484375 -16.6328125 66.1171875 C-16.81457031 65.06917969 -16.81457031 65.06917969 -17 64 C-15.6696875 63.319375 -15.6696875 63.319375 -14.3125 62.625 C-9.80159694 59.62487445 -7.8051444 54.97000796 -6 50 C-5.5741009 46.57845544 -5.5741009 46.57845544 -6 44 C-11.59282842 45.36410449 -14.91193811 48.15383526 -19 52 C-19.02708567 50.39592672 -19.04643483 48.7917215 -19.0625 47.1875 C-19.07410156 46.29417969 -19.08570313 45.40085938 -19.09765625 44.48046875 C-19 42 -19 42 -18 39 C-15.92578125 38.19140625 -15.92578125 38.19140625 -13.3125 37.5625 C-7.26274998 35.90313999 -2.33260746 33.55434576 1 28 C1 27.34 1 26.68 1 26 C-4.73842251 25.79586639 -9.60539047 25.72858546 -15 28 C-14.46181773 22.93796677 -12.73102864 18.97174099 -10.3125 14.5625 C-9.95671875 13.90306396 -9.6009375 13.24362793 -9.234375 12.56420898 C-6.62833538 7.85243797 -3.77389453 3.86824189 0 0 Z " fill="#C7F8B6" transform="translate(64,79)"/>
<path d="M0 0 C1.87295532 -0.36076355 1.87295532 -0.36076355 4.17431641 -0.34057617 C5.46542831 -0.34023628 5.46542831 -0.34023628 6.78262329 -0.33988953 C7.71287323 -0.32440567 8.64312317 -0.30892181 9.6015625 -0.29296875 C10.55316254 -0.28872391 11.50476257 -0.28447906 12.48519897 -0.28010559 C15.53208414 -0.26327896 18.57831391 -0.22561954 21.625 -0.1875 C23.68749046 -0.17245831 25.74999127 -0.15876901 27.8125 -0.14648438 C32.8752535 -0.11336239 37.93751554 -0.06155284 43 0 C45.0630368 11.69398713 45.63496327 23.11376886 38.8125 33.25 C32.93782637 38.99412533 25.91666849 41.43115546 17.76953125 41.34765625 C11.83560302 40.60277668 6.85834392 37.76304423 2.5625 33.6875 C-1.5426597 26.62662531 -2.46060543 20.7148144 -2.3125 12.6875 C-2.31572266 11.79482422 -2.31894531 10.90214844 -2.32226562 9.98242188 C-2.26779762 3.40169643 -2.26779762 3.40169643 0 0 Z " fill="#F7B984" transform="translate(100,85)"/>
<path d="M0 0 C17.82 0.33 35.64 0.66 54 1 C53.67 1.66 53.34 2.32 53 3 C50.05664062 3.37890625 50.05664062 3.37890625 46.15625 3.5625 C45.47195923 3.59931885 44.78766846 3.6361377 44.0826416 3.67407227 C41.14412703 3.83187859 38.2046628 3.96705313 35.26513672 4.10449219 C33.12420035 4.20777259 30.98407464 4.32233801 28.84375 4.4375 C27.55662109 4.49808594 26.26949219 4.55867188 24.94335938 4.62109375 C23.97205078 4.74613281 23.00074219 4.87117188 22 5 C18.70711528 11.58576943 20.35179455 23.25967936 21.578125 30.3359375 C23.77129433 36.81575597 27.99256259 40.001813 34 43 C39.98152094 44.99384031 45.98982941 44.73129783 51.8125 42.3125 C60.15769021 38.13254582 63.60112345 31.25441448 67 23 C67.33 23 67.66 23 68 23 C68 29.27 68 35.54 68 42 C70.31 42.33 72.62 42.66 75 43 C75.474375 42.175 75.94875 41.35 76.4375 40.5 C76.953125 39.675 77.46875 38.85 78 38 C78.33 38 78.66 38 79 38 C79.21278058 42.46839215 78.59138085 45.82262526 77 50 C75.515 49.505 75.515 49.505 74 49 C74 48.34 74 47.68 74 47 C71.03 46.67 68.06 46.34 65 46 C64.649375 47.03125 64.29875 48.0625 63.9375 49.125 C61.43514877 54.90145564 56.83663788 58.43529839 51.125 60.875 C43.68707704 63.28729934 36.93719052 62.42468899 30 59 C25.70815914 56.57065612 23.04455633 54.5434585 21 50 C21 48.68 21 47.36 21 46 C19.68 45.67 18.36 45.34 17 45 C18.3125 43.5 18.3125 43.5 20 42 C20.99 42 21.98 42 23 42 C23.33 42.66 23.66 43.32 24 44 C23.55901345 41.13358742 22.79296242 39.71281884 21.0625 37.3125 C19.16721729 34.2685611 18.64739159 32.82312246 18.0625 29.4375 C17.2381657 24.9150054 15.28615381 23.19967607 12 20 C11.37071651 15.68491318 12.38133372 12.94549906 14 9 C14.03926254 7.33379586 14.04435478 5.66607636 14 4 C13.39414063 4.01160156 12.78828125 4.02320312 12.1640625 4.03515625 C6.04075052 4.10109961 0.07906669 3.72431433 -6 3 C-6 2.67 -6 2.34 -6 2 C-4.02 1.67 -2.04 1.34 0 1 C0 0.67 0 0.34 0 0 Z " fill="#4C352B" transform="translate(78,81)"/>
<path d="M0 0 C4.60792115 2.08064525 8.41724374 5.20316932 12.44140625 8.22265625 C14.94027823 10.13649399 14.94027823 10.13649399 18 11 C17.67 10.01 17.34 9.02 17 8 C16.34 7.67 15.68 7.34 15 7 C16.3024333 4.09457188 17.70886268 2.1907039 20 0 C20.81498562 1.6029053 21.62689927 3.20737278 22.4375 4.8125 C23.11619141 6.15248047 23.11619141 6.15248047 23.80859375 7.51953125 C25.94025053 11.95757078 26.19225348 15.47617005 26.25 20.375 C26.27578125 21.68210938 26.3015625 22.98921875 26.328125 24.3359375 C25.98650077 28.15074144 25.31641599 29.99765501 23 33 C19.70047194 34.64976403 16.5529562 34.6115243 13 34 C3.92078167 30.02274816 -3.54407787 21.06068496 -9 13 C-9 12.34 -9 11.68 -9 11 C-8.071875 10.67 -7.14375 10.34 -6.1875 10 C-1.79272355 7.24249321 -1.44317923 4.89077407 0 0 Z " fill="#519639" transform="translate(168,169)"/>
<path d="M0 0 C8.07711889 7.61275491 13.64639332 17.13908584 16 28 C15.21625 27.690625 14.4325 27.38125 13.625 27.0625 C10.49528805 26.14517063 8.08598585 25.81974914 4.875 25.625 C0.38115417 25.25106929 -0.94443594 24.35126381 -4 21 C-8.55264748 18.8981235 -12.11416394 17.55379253 -17 19 C-19.33300933 19.03888349 -21.66709801 19.0448635 -24 19 C-24.309375 18.030625 -24.61875 17.06125 -24.9375 16.0625 C-25.69523342 13.15934208 -25.69523342 13.15934208 -27 12 C-27.125 9 -27.125 9 -27 6 C-25.47990373 4.47990373 -24.0756913 4.82126971 -21.95703125 4.75390625 C-21.13009766 4.72103516 -20.30316406 4.68816406 -19.45117188 4.65429688 C-17.71169768 4.59378223 -15.97211066 4.53641676 -14.23242188 4.48242188 C-9.50645574 4.28870478 -5.39110202 3.95393535 -1 2 C-0.67 1.34 -0.34 0.68 0 0 Z " fill="#C6F7B5" transform="translate(176,79)"/>
<path d="M0 0 C3 1 3 1 4 3 C4.81108303 10.15348642 3.64651238 14.84651037 0 21 C3.465 20.505 3.465 20.505 7 20 C6 23 6 23 3.55859375 24.2890625 C2.52863281 24.72992188 1.49867187 25.17078125 0.4375 25.625 C-8.46643388 29.93949527 -13.14392037 35.32683067 -16.75 44.5 C-17.09546875 45.5209375 -17.4409375 46.541875 -17.796875 47.59375 C-19 50 -19 50 -21.140625 50.84375 C-21.75421875 50.8953125 -22.3678125 50.946875 -23 51 C-20.28998085 39.61316515 -15.15319971 32.22498759 -6 25 C-7.051875 24.90525391 -7.051875 24.90525391 -8.125 24.80859375 C-15.55094793 23.85008145 -20.14372301 21.78778792 -25 16 C-26.5 13.0625 -26.5 13.0625 -27 11 C-25.46876315 9.46876315 -24.06787176 9.75692893 -21.9375 9.6875 C-16.73177628 9.71252752 -13.45482826 11.40809992 -9 14 C-8.68546875 13.32453125 -8.3709375 12.6490625 -8.046875 11.953125 C-3.79613357 3.09314587 -3.79613357 3.09314587 0 0 Z " fill="#493329" transform="translate(87,106)"/>
<path d="M0 0 C3.57276904 1.51374725 5.85680371 3.61894388 8.5625 6.375 C9.32691406 7.14585937 10.09132812 7.91671875 10.87890625 8.7109375 C14.60746232 12.73475676 16.36725459 15.52133081 17.5625 20.9375 C18.42755862 24.80338342 19.43641448 28.35610757 21 32 C21.66 32 22.32 32 23 32 C21.79618552 34.49361571 20.54571278 36.68143083 19 39 C14.31998807 37.68374664 11.43267291 34.89746854 7.96484375 31.65625 C6.09703291 29.91643222 6.09703291 29.91643222 3.8515625 29.08984375 C2 28 2 28 1.05859375 25.72265625 C0.85363281 24.84480469 0.64867187 23.96695313 0.4375 23.0625 C-0.37391443 19.35694513 -0.37391443 19.35694513 -2.59765625 16.41796875 C-3.06042969 15.95003906 -3.52320313 15.48210937 -4 15 C-3.81067226 9.32016787 -2.44021528 5.0926232 0 0 Z " fill="#519639" transform="translate(162,134)"/>
<path d="M0 0 C3.84002931 2.10825138 6.73003778 4.21672964 9 8 C9 8.66 9 9.32 9 10 C7.96166016 9.9690625 7.96166016 9.9690625 6.90234375 9.9375 C-6.59296488 10.22198608 -17.05331467 17.4848125 -26.70092773 26.31787109 C-29.64858983 29.00404315 -32.18565853 30.78444063 -36 32 C-35.74410132 26.42354129 -32.17761202 23.47006453 -28.5 19.6875 C-27.86578125 19.02322998 -27.2315625 18.35895996 -26.578125 17.67456055 C-21.93944127 12.85968698 -17.21225477 8.1978615 -12 4 C-11.17435547 3.32517578 -11.17435547 3.32517578 -10.33203125 2.63671875 C-6.84128028 0.02538576 -4.30034339 -0.7167239 0 0 Z " fill="#FFD47C" transform="translate(122,40)"/>
<path d="M0 0 C1.84241041 0.22738609 3.67562004 0.53175326 5.5 0.875 C7.00046875 1.14957031 7.00046875 1.14957031 8.53125 1.4296875 C11 2 11 2 12 3 C12.07244053 5.01964199 12.08377188 7.04167124 12.0625 9.0625 C12.05347656 10.16722656 12.04445312 11.27195312 12.03515625 12.41015625 C12.02355469 13.26480469 12.01195312 14.11945313 12 15 C11.46890625 14.57847656 10.9378125 14.15695313 10.390625 13.72265625 C9.68421875 13.17480469 8.9778125 12.62695312 8.25 12.0625 C7.55390625 11.51722656 6.8578125 10.97195312 6.140625 10.41015625 C4.03907872 9.02574346 2.45678201 8.43713013 0 8 C0.17301653 14.79483099 1.62249588 19.70892981 6 25 C6.78375 25.474375 7.5675 25.94875 8.375 26.4375 C10 28 10 28 10.05859375 30.06640625 C9.70556867 33.55743204 9.11140301 36.66579098 8 40 C7.34 40 6.68 40 6 40 C5.73445312 39.44570312 5.46890625 38.89140625 5.1953125 38.3203125 C4.84210938 37.59585938 4.48890625 36.87140625 4.125 36.125 C3.77695313 35.40570313 3.42890625 34.68640625 3.0703125 33.9453125 C2.03442457 31.84864981 2.03442457 31.84864981 0 30 C-0.763125 30.0825 -1.52625 30.165 -2.3125 30.25 C-5 30 -5 30 -7.875 27.3125 C-10 24 -10 24 -9.8828125 21.87109375 C-8.59265663 17.67523283 -6.81276343 13.74315021 -5 9.75 C-4.44699219 8.50863281 -4.44699219 8.50863281 -3.8828125 7.2421875 C-1.14332217 1.14332217 -1.14332217 1.14332217 0 0 Z " fill="#C4F2B2" transform="translate(183,115)"/>
<path d="M0 0 C0.78310547 0.32484375 0.78310547 0.32484375 1.58203125 0.65625 C11.85331829 4.5417106 20.72406488 3.33918201 31 0 C33 3 33 3 32.9375 5.4375 C31.47387647 9.43807097 28.91379376 11.04310312 25.171875 12.9140625 C19.63377738 15.24704063 14.4286303 16.10509572 8.63671875 14.23828125 C4.4845946 12.51898925 0.61180954 10.79899569 -2 7 C-1.8125 4.9375 -1.8125 4.9375 -1 3 C-0.67 2.01 -0.34 1.02 0 0 Z " fill="#D79A6F" transform="translate(105,125)"/>
<path d="M0 0 C0.33 0.66 0.66 1.32 1 2 C3.11907132 2.43336532 3.11907132 2.43336532 5.625 2.5625 C8.53108903 2.7815744 11.3634072 3.05658305 14.24537659 3.50531006 C17.84786089 3.97995493 21.27896557 4.13991284 24.90991211 4.16113281 C25.56132675 4.16609772 26.21274139 4.17106262 26.88389587 4.17617798 C29.01505632 4.19065068 31.14614247 4.19757489 33.27734375 4.203125 C34.37805804 4.20736607 34.37805804 4.20736607 35.50100899 4.21169281 C39.38112872 4.22662149 43.26121185 4.235892 47.14135742 4.24023438 C51.13016643 4.24572314 55.11863483 4.26977763 59.107337 4.29820633 C62.19329286 4.31690113 65.27916756 4.32204184 68.36517525 4.32357025 C69.83506707 4.32657968 71.30495805 4.33454986 72.77479362 4.34775543 C80.50100591 4.41224284 86.83617972 4.08837651 94 1 C96.12730408 1.28253174 96.12730408 1.28253174 98 2 C99.25 4.0625 99.25 4.0625 100 6 C83.43369391 8.54969149 66.5652687 8.1580797 49.85058594 8.13037109 C46.00712134 8.12500993 42.16377357 8.13034729 38.3203125 8.13671875 C27.64324035 8.13999033 16.97674163 8.12755431 6.3125 7.5546875 C5.58200439 7.51594513 4.85150879 7.47720276 4.09887695 7.43728638 C-0.73543776 7.13228112 -0.73543776 7.13228112 -3 6 C-2 4 -1 2 0 0 Z " fill="#CD972C" transform="translate(72,74)"/>
<path d="M0 0 C0.99 0 1.98 0 3 0 C2.46228519 3.37992169 1.85696068 6.68737889 1 10 C2.22976562 10.05607422 2.22976562 10.05607422 3.484375 10.11328125 C4.56203125 10.17902344 5.6396875 10.24476562 6.75 10.3125 C7.81734375 10.37050781 8.8846875 10.42851563 9.984375 10.48828125 C13.21478929 11.03644741 14.71977656 11.66996585 17 14 C17 14.99 17 15.98 17 17 C15.68 17 14.36 17 13 17 C12.91105469 17.61359375 12.82210937 18.2271875 12.73046875 18.859375 C12 21 12 21 10.36328125 22.265625 C2.73616474 25.92664093 2.73616474 25.92664093 -2 25 C-5.41805079 22.90274167 -7.70210759 20.89367722 -9 17 C-9.99 17 -10.98 17 -12 17 C-10.84826645 14.53199953 -9.95216435 12.95216435 -8 11 C-5.375 10.875 -5.375 10.875 -3 11 C-2.87625 10.113125 -2.7525 9.22625 -2.625 8.3125 C-2.05587264 5.29612498 -1.23385564 2.79673946 0 0 Z " fill="#5E403A" transform="translate(118,95)"/>
<path d="M0 0 C4.69573105 -0.32760914 7.24795287 0.11659401 11 3 C12.29296875 5.84765625 12.29296875 5.84765625 13.1875 9.0625 C14.32302271 13.47585674 14.32302271 13.47585674 17 17 C16.9375 20.4375 16.9375 20.4375 16 24 C13.4375 25.9375 13.4375 25.9375 11 27 C10.68546875 26.51789063 10.3709375 26.03578125 10.046875 25.5390625 C6.9341832 20.62542075 6.9341832 20.62542075 2 18 C-0.69069349 17.86002173 -3.30079652 17.91002655 -6 18 C-6 16.68 -6 15.36 -6 14 C-2.78548731 12.39274365 0.43612536 12.94251815 4 13 C3.67 12.34 3.34 11.68 3 11 C1.10466658 10.53476937 1.10466658 10.53476937 -1.0625 10.375 C-2.361875 10.25125 -3.66125 10.1275 -5 10 C-5 9.01 -5 8.02 -5 7 C-1.37 7 2.26 7 6 7 C5.10664203 4.64214682 5.10664203 4.64214682 1.9375 3.875 C0.968125 3.58625 -0.00125 3.2975 -1 3 C-0.67 2.01 -0.34 1.02 0 0 Z " fill="#F6B884" transform="translate(148,150)"/>
<path d="M0 0 C0 0.66 0 1.32 0 2 C-1.94140625 3.26171875 -1.94140625 3.26171875 -4.5625 4.6875 C-21.23727062 14.51412291 -26.82011805 32.64764658 -33 50 C-33.33 50 -33.66 50 -34 50 C-34.82586569 36.23557176 -30.7083336 21.1841567 -21.8125 10.5625 C-16.02630796 4.54408621 -8.54030733 0 0 0 Z " fill="#7CBC64" transform="translate(98,128)"/>
<path d="M0 0 C3.79797116 1.26599039 4.89971854 2.62454766 7 6 C6.71293819 11.5033849 4.3216501 16.01611033 1.9375 20.875 C1.56044922 21.65875 1.18339844 22.4425 0.79492188 23.25 C-0.12993234 25.16995053 -1.06403978 27.085439 -2 29 C-4.93446886 27.58208437 -7.43332409 26.01667393 -10 24 C-9.68377223 21.99722415 -9.34450114 19.99810662 -9 18 C-8.83371094 16.73542969 -8.83371094 16.73542969 -8.6640625 15.4453125 C-8.26766706 12.86500257 -7.85318279 10.46878424 -7 8 C-4.5 6.75 -4.5 6.75 -2 6 C-0.62810173 2.97017694 -0.62810173 2.97017694 0 0 Z " fill="#694E3A" transform="translate(173,106)"/>
<path d="M0 0 C0.94875 0.04125 1.8975 0.0825 2.875 0.125 C2.545 3.095 2.215 6.065 1.875 9.125 C2.535 9.125 3.195 9.125 3.875 9.125 C2.8068153 14.23865014 1.64392524 19.19727969 -0.125 24.125 C-7 23.25 -7 23.25 -8.125 22.125 C-8.73448785 14.79942492 -8.32155057 8.76398964 -5.125 2.125 C-3.125 0.125 -3.125 0.125 0 0 Z " fill="#684D39" transform="translate(153.125,100.875)"/>
<path d="M0 0 C14.19 0 28.38 0 43 0 C43 1.32 43 2.64 43 4 C36.78265726 5.0946026 30.67923393 5.19143032 24.375 5.1875 C23.3128125 5.18814453 22.250625 5.18878906 21.15625 5.18945312 C13.59322795 5.13860151 6.40747854 4.62038593 -1 3 C-0.67 2.01 -0.34 1.02 0 0 Z " fill="#D69A6E" transform="translate(100,85)"/>
<path d="M0 0 C-1.00122817 2.61859676 -1.66606437 3.79889378 -4.1015625 5.265625 C-11.66264537 8.21514959 -17.09784519 9.37574643 -24.875 6.25 C-28.30993996 4.74197758 -29.60357379 3.49841514 -31 0 C-29.31583984 0.14308594 -29.31583984 0.14308594 -27.59765625 0.2890625 C-19.15329782 0.93775819 -7.4311276 -2.39713794 0 0 Z " fill="#F5B883" transform="translate(136,132)"/>
<path d="M0 0 C0.99 0 1.98 0 3 0 C2.42558427 6.44120109 1.28463669 12.39919971 -0.4375 18.625 C-0.65470703 19.43195313 -0.87191406 20.23890625 -1.09570312 21.0703125 C-2.35409446 25.72598256 -3.66444598 30.36593814 -5 35 C-6.32 35 -7.64 35 -9 35 C-8.43405068 27.5090319 -6.6725717 20.73896675 -4.5 13.5625 C-4.01853516 11.93151367 -4.01853516 11.93151367 -3.52734375 10.26757812 C-1.16826277 2.33652554 -1.16826277 2.33652554 0 0 Z " fill="#694E3A" transform="translate(160,112)"/>
<path d="M0 0 C2.95397701 3.63566401 5.76536352 7.35649031 8.53515625 11.1328125 C9.95490004 13.03211408 9.95490004 13.03211408 11.68359375 14.6171875 C13 16 13 16 13 18 C17.95188142 20.56764222 22.44686418 22.22514384 28 23 C26 25 26 25 22.4375 25.5 C15.54850698 25.2641606 10.97841127 20.99278926 6.3125 16.29296875 C-4 5.09611192 -4 5.09611192 -4 2 C-2.68 1.34 -1.36 0.68 0 0 Z " fill="#446F32" transform="translate(163,178)"/>
<path d="M0 0 C0.66 0 1.32 0 2 0 C1.835 1.051875 1.67 2.10375 1.5 3.1875 C0.74288605 9.10578512 0.91830321 15.04521179 1 21 C1.99 21.33 2.98 21.66 4 22 C4 23.32 4 24.64 4 26 C-0.95 26.495 -0.95 26.495 -6 27 C-6.43999725 20.84003852 -5.60399799 15.5104703 -4.125 9.5625 C-3.95129883 8.85222656 -3.77759766 8.14195312 -3.59863281 7.41015625 C-2.25877954 2.25877954 -2.25877954 2.25877954 0 0 Z " fill="#6B503B" transform="translate(146,170)"/>
<path d="M0 0 C3.90174235 3.25145196 4.76621124 6.15297274 6 11 C6.99 12.485 6.99 12.485 8 14 C8.375 17.5 8.375 17.5 8 21 C6.125 22.9375 6.125 22.9375 4 24 C3.34 24 2.68 24 2 24 C1.896875 23.05125 1.79375 22.1025 1.6875 21.125 C1.31460705 17.70892499 1.31460705 17.70892499 -2 16 C-1.85890014 13.89551062 -1.71195825 11.7914123 -1.5625 9.6875 C-1.48128906 8.51574219 -1.40007812 7.34398437 -1.31640625 6.13671875 C-1 3 -1 3 0 0 Z " fill="#436D31" transform="translate(151,172)"/>
<path d="M0 0 C2 2 2 2 3 5 C4.64821244 6.03013277 6.32111559 7.02065076 8 8 C10.25886138 9.90284519 12.50369858 11.8157623 14.71875 13.76953125 C15.4715625 14.17558594 16.224375 14.58164063 17 15 C19.61697286 14.26883952 19.61697286 14.26883952 22 13 C22.99 13 23.98 13 25 13 C23.02 15.97 23.02 15.97 21 19 C21.99 19.33 22.98 19.66 24 20 C24 20.99 24 21.98 24 23 C20.05796807 22.39425041 17.58356111 20.42953645 14.4375 18.0625 C11.6518585 15.97988335 8.89442894 13.92961929 6 12 C6 12.66 6 13.32 6 14 C5.01 14.33 4.02 14.66 3 15 C2.566875 13.63875 2.566875 13.63875 2.125 12.25 C1.15625677 9.12191528 1.15625677 9.12191528 -0.1875 6.9375 C-1.27962923 4.33319183 -0.74076957 2.66677045 0 0 Z " fill="#433025" transform="translate(162,157)"/>
<path d="M0 0 C1.25 2.0625 1.25 2.0625 2 4 C-4.61976217 5.20882613 -11.16052453 5.15035986 -17.875 5.125 C-19.12047607 5.12306641 -20.36595215 5.12113281 -21.64916992 5.11914062 C-36.7733762 5.05180971 -51.88641912 4.54002722 -67 4 C-67 3.67 -67 3.34 -67 3 C-66.3287207 2.99413376 -65.65744141 2.98826752 -64.96582031 2.98222351 C-57.95724647 2.91811799 -50.94912452 2.83365385 -43.94091797 2.73754883 C-41.32802298 2.70436561 -38.71505745 2.67631329 -36.10205078 2.65356445 C-32.33856239 2.61989792 -28.57571661 2.56757351 -24.8125 2.51171875 C-23.65073242 2.50532883 -22.48896484 2.4989389 -21.29199219 2.49235535 C-14.87538569 2.37694685 -5.52240289 -2.12514608 0 0 Z " fill="#D69F2D" transform="translate(170,76)"/>
<path d="M0 0 C1.75 0.125 1.75 0.125 4 1 C8 6.22222222 8 6.22222222 8 9 C7.34 9 6.68 9 6 9 C6 12.63 6 16.26 6 20 C5.34 20 4.68 20 4 20 C3.525625 19.195625 3.05125 18.39125 2.5625 17.5625 C1.20016328 14.7081924 1.20016328 14.7081924 -2 14 C-2.05437607 12.41705218 -2.09296271 10.83355744 -2.125 9.25 C-2.14820313 8.36828125 -2.17140625 7.4865625 -2.1953125 6.578125 C-1.99139502 3.8864142 -1.36551721 2.30095026 0 0 Z " fill="#533D36" transform="translate(38,91)"/>
<path d="M0 0 C3.91715283 0.58031894 6.03529452 2.45882387 9 5 C9.99 5.825 10.98 6.65 12 7.5 C12.99 8.325 13.98 9.15 15 10 C16.423125 11.0828125 16.423125 11.0828125 17.875 12.1875 C18.57625 12.785625 19.2775 13.38375 20 14 C20 14.66 20 15.32 20 16 C12.03727192 15.87360749 7.7070765 13.52609099 2 8 C-0.1519437 4.77208445 -0.20086443 3.71599191 0 0 Z " fill="#447233" transform="translate(111,171)"/>
<path d="M0 0 C-0.33 2.97 -0.66 5.94 -1 9 C-2.32 8.67 -3.64 8.34 -5 8 C-5.2475 8.7425 -5.495 9.485 -5.75 10.25 C-7.10465039 13.23023087 -8.5101541 14.89919252 -11 17 C-11.66 17 -12.32 17 -13 17 C-12.46884894 12.48521602 -10.63379708 9.65333143 -8 6 C-9.32 6.99 -10.64 7.98 -12 9 C-12.66 8.67 -13.32 8.34 -14 8 C-12.92319498 6.86874978 -11.83824365 5.74525081 -10.75 4.625 C-10.14671875 3.99851562 -9.5434375 3.37203125 -8.921875 2.7265625 C-5.73165414 -0.13944892 -4.19920759 -1.39973586 0 0 Z " fill="#524032" transform="translate(59,123)"/>
<path d="M0 0 C7.75 0.875 7.75 0.875 10 2 C9.67 4.64 9.34 7.28 9 10 C5.37 9.34 1.74 8.68 -2 8 C-1.125 2.25 -1.125 2.25 0 0 Z " fill="#694E3A" transform="translate(160,100)"/>
<path d="M0 0 C1.32 0.66 2.64 1.32 4 2 C3.13329546 8.35583327 2.06965872 14.67551301 1 21 C-1.94665184 17.67313501 -3.52334651 15.43353043 -4 11 C-3.4765625 8.359375 -3.4765625 8.359375 -2.625 5.75 C-2.21121094 4.44289062 -2.21121094 4.44289062 -1.7890625 3.109375 C-1 1 -1 1 0 0 Z " fill="#447032" transform="translate(162,134)"/>
<path d="M0 0 C0.10929806 6.74525195 -1.45833131 10.54222298 -6.14453125 15.40234375 C-8.28940002 17.24918865 -10.24157099 18.33128994 -13 19 C-11.59099426 14.51679992 -9.32565176 12.24453831 -6 9 C-4.94712186 7.36622358 -3.9272999 5.70818403 -3 4 C-4.98 4.99 -6.96 5.98 -9 7 C-9 4 -9 4 -7 1 C-4 0 -4 0 0 0 Z " fill="#4D342B" transform="translate(213,124)"/>
<path d="M0 0 C1.05604238 3.24654153 0.9143457 5.3695118 0.109375 8.66796875 C-0.10589844 9.56193359 -0.32117188 10.45589844 -0.54296875 11.37695312 C-0.77628906 12.30443359 -1.00960937 13.23191406 -1.25 14.1875 C-1.46785156 15.09564453 -1.68570313 16.00378906 -1.91015625 16.93945312 C-3.32822737 22.73198341 -5.01889281 28.37562633 -7 34 C-7.66 34 -8.32 34 -9 34 C-8.38273432 26.91859092 -6.5405457 20.41862405 -4.5 13.625 C-4.17902344 12.53316406 -3.85804688 11.44132812 -3.52734375 10.31640625 C-1.15788849 2.31577698 -1.15788849 2.31577698 0 0 Z " fill="#84634D" transform="translate(160,112)"/>
<path d="M0 0 C0.33 0.99 0.66 1.98 1 3 C-0.07421875 4.75390625 -0.07421875 4.75390625 -1.6875 6.5625 C-2.20699219 7.16191406 -2.72648437 7.76132813 -3.26171875 8.37890625 C-5.09571646 10.08926367 -6.6713688 11.08266044 -9 12 C-11.25 11.625 -11.25 11.625 -13 11 C-10.3765992 8.08511023 -7.28183606 6.11496102 -4 4 C-6.97 3.505 -6.97 3.505 -10 3 C-8.0130571 -0.97388579 -3.91761109 -0.08705802 0 0 Z " fill="#493227" transform="translate(65,104)"/>
<path d="M0 0 C0.33 0 0.66 0 1 0 C2.50331806 8.87501021 1.2379475 16.33901673 -1 25 C-2.65 23.35 -4.3 21.7 -6 20 C-4.8699248 17.7398496 -3.73166823 15.54920263 -2.4375 13.375 C-0.55380808 8.95241898 -0.2729493 4.76249477 0 0 Z " fill="#BFEBAD" transform="translate(62,148)"/>
<path d="M0 0 C0.33 0 0.66 0 1 0 C1 6.6 1 13.2 1 20 C-1.475 19.01 -1.475 19.01 -4 18 C-3.41632611 11.69632197 -1.95928381 6.01339937 0 0 Z " fill="#446E32" transform="translate(83,174)"/>
<path d="M0 0 C4.99767765 0.4759693 8.07050258 1.87426342 12 5 C13.375 7.25 13.375 7.25 14 9 C9.00232235 8.5240307 5.92949742 7.12573658 2 4 C0.625 1.75 0.625 1.75 0 0 Z " fill="#E8AE32" transform="translate(36,156)"/>
<path d="M0 0 C0.33 0 0.66 0 1 0 C1.46450943 6.50313209 0.32575612 10.4174808 -3 16 C-3.66 16 -4.32 16 -5 16 C-5.50212051 9.97455391 -4.12689062 6.14869539 -1 1 C-0.67 0.67 -0.34 0.34 0 0 Z " fill="#E5AB32" transform="translate(87,110)"/>
<path d="M0 0 C-0.86132098 12.53448696 -0.86132098 12.53448696 -3 18 C-3.99 18.33 -4.98 18.66 -6 19 C-4.78290893 6.22054381 -4.78290893 6.22054381 -3 1 C-1 0 -1 0 0 0 Z " fill="#422E24" transform="translate(143,173)"/>
<path d="M0 0 C-1.51194814 4.23345479 -4.15674915 5.85664857 -8 8 C-11.375 8.75 -11.375 8.75 -14 9 C-12.61318429 5.65448581 -11.20415702 4.13235259 -8.125 2.25 C-7.44695312 1.82203125 -6.76890625 1.3940625 -6.0703125 0.953125 C-4 0 -4 0 0 0 Z " fill="#E9AE32" transform="translate(205,156)"/>
<path d="M0 0 C0.99 0 1.98 0 3 0 C1.62701605 4.00453651 -0.08350802 6.91685133 -3 10 C-5.75 11.3125 -5.75 11.3125 -8 12 C-7.58388059 7.1452735 -5.54108048 5.19560921 -2 2 C-1.34 1.34 -0.68 0.68 0 0 Z " fill="#E9AE32" transform="translate(207,128)"/>
<path d="M0 0 C3 1 3 1 4.1796875 2.734375 C5.13874367 5.38319681 5.19893014 7.44065467 5.125 10.25 C5.10695313 11.14203125 5.08890625 12.0340625 5.0703125 12.953125 C5.03550781 13.96632813 5.03550781 13.96632813 5 15 C4.34 15 3.68 15 3 15 C-0.16727335 9.8531808 -0.35050464 5.841744 0 0 Z " fill="#E8AE32" transform="translate(39,96)"/>
<path d="M0 0 C3.76745848 0.55011562 5.30609364 2.02377592 7.75 4.875 C8.36359375 5.57367188 8.9771875 6.27234375 9.609375 6.9921875 C11 9 11 9 11 12 C6.01101158 10.82612037 4.01341878 7.81687611 1.13671875 3.875 C0 2 0 2 0 0 Z " fill="#ECB133" transform="translate(31,128)"/>
<path d="M0 0 C6.3317342 0.25843813 9.68276104 2.38094799 14 7 C14 7.33 14 7.66 14 8 C7.53431314 7.66556792 4.55077357 6.66454291 0 2 C0 1.34 0 0.68 0 0 Z " fill="#EEB233" transform="translate(65,119)"/>
<path d="M0 0 C5.2741376 -0.6592672 8.09539559 0.93071484 12.36328125 3.7109375 C14 5 14 5 15 7 C10.00341919 7.6245726 7.64378262 7.11073069 3.5625 4.0625 C1.50390625 2.41015625 1.50390625 2.41015625 0 1 C0 0.67 0 0.34 0 0 Z " fill="#ECB133" transform="translate(179,107)"/>
<path d="M0 0 C0.66 0 1.32 0 2 0 C1.74282219 5.27214518 -0.17233517 7.87129938 -3.52734375 11.6796875 C-5 13 -5 13 -7 13 C-6.36664937 7.61651963 -3.79089107 3.79089107 0 0 Z " fill="#EEB233" transform="translate(53,127)"/>
<path d="M0 0 C0.66 0.33 1.32 0.66 2 1 C1.39425587 11.75718016 1.39425587 11.75718016 -2 16 C-2.33 16 -2.66 16 -3 16 C-3.55353075 4.29384966 -3.55353075 4.29384966 0 0 Z " fill="#EDB233" transform="translate(200,96)"/>
<path d="M0 0 C3.1391933 2.9366647 4.90494731 4.79857974 5.09765625 9.26171875 C5.08605469 10.06222656 5.07445312 10.86273438 5.0625 11.6875 C5.05347656 12.49574219 5.04445312 13.30398437 5.03515625 14.13671875 C5.02355469 14.75160156 5.01195312 15.36648437 5 16 C1.8608067 13.0633353 0.09505269 11.20142026 -0.09765625 6.73828125 C-0.08605469 5.93777344 -0.07445312 5.13726562 -0.0625 4.3125 C-0.05347656 3.50425781 -0.04445312 2.69601563 -0.03515625 1.86328125 C-0.02355469 1.24839844 -0.01195312 0.63351563 0 0 Z " fill="#EFB333" transform="translate(182,148)"/>
<path d="M0 0 C0.33 0 0.66 0 1 0 C1.68875775 9.68087284 1.68875775 9.68087284 -0.9375 13.625 C-1.618125 14.40875 -2.29875 15.1925 -3 16 C-3.33 16 -3.66 16 -4 16 C-4.54330269 9.34454208 -3.77304004 5.54165256 0 0 Z " fill="#F0B433" transform="translate(58,148)"/>
<path d="M0 0 C3.3772445 1.39275254 4.87070305 2.82273931 6.75 5.9375 C7.17796875 6.62714844 7.6059375 7.31679687 8.046875 8.02734375 C9 10 9 10 9 13 C5.17982999 11.49921893 3.24629201 9.40816719 1 6 C0.25 2.6875 0.25 2.6875 0 0 Z " fill="#EDB233" transform="translate(186,127)"/>
<path d="M0 0 C-6.54201681 6.90546218 -6.54201681 6.90546218 -12.25 7.125 C-13.1575 7.08375 -14.065 7.0425 -15 7 C-9.96702568 1.687416 -7.39491636 -0.33613256 0 0 Z " fill="#F0B433" transform="translate(62,107)"/>
<path d="M0 0 C0.99 0 1.98 0 3 0 C2.50345741 3.1778726 1.69633051 6.20157738 0.6875 9.25 C0.46449219 9.93578125 0.24148437 10.6215625 0.01171875 11.328125 C-1 13 -1 13 -3.10546875 13.734375 C-3.73066406 13.82203125 -4.35585937 13.9096875 -5 14 C-4.54636829 12.41531323 -4.08688548 10.83230076 -3.625 9.25 C-3.36976562 8.36828125 -3.11453125 7.4865625 -2.8515625 6.578125 C-2.0790066 4.23919428 -1.16374324 2.16557438 0 0 Z " fill="#4C3C30" transform="translate(69,143)"/>
<path d="M0 0 C-0.8662614 10.25835866 -0.8662614 10.25835866 -3 15 C-3.99 15.33 -4.98 15.66 -6 16 C-5.33333333 12.66666667 -4.66666667 9.33333333 -4 6 C-3.85433594 5.08605469 -3.70867187 4.17210937 -3.55859375 3.23046875 C-3.37425781 2.49441406 -3.18992188 1.75835937 -3 1 C-1 0 -1 0 0 0 Z " fill="#412E24" transform="translate(154,129)"/>
<path d="M0 0 C0.99 0 1.98 0 3 0 C4.78409802 3.06246747 5.22880021 5.22079273 5.125 8.75 C5.10695312 9.54921875 5.08890625 10.3484375 5.0703125 11.171875 C5.03550781 12.07679687 5.03550781 12.07679687 5 13 C4.67 13 4.34 13 4 13 C4 10.36 4 7.72 4 5 C1.13275314 5.57344937 0.1385485 5.8614515 -2 8 C-2.66 7.67 -3.32 7.34 -4 7 C-2.92598892 4.08482708 -2.22189824 2.22189824 0 0 Z " fill="#604B42" transform="translate(200,91)"/>
<path d="M0 0 C5.02709507 1.57096721 9.02866469 4.61993049 13 8 C13 8.33 13 8.66 13 9 C9.7 9 6.4 9 3 9 C3.66 8.34 4.32 7.68 5 7 C4.175 6.21625 3.35 5.4325 2.5 4.625 C0 2 0 2 0 0 Z " fill="#446F32" transform="translate(103,194)"/>
<path d="M0 0 C3.88561424 0.57564655 6.04613357 2.51253354 9 5 C9.66 5.33 10.32 5.66 11 6 C11 6.99 11 7.98 11 9 C5.95030484 8.55443866 3.52381313 6.44186399 0 3 C0 2.01 0 1.02 0 0 Z " fill="#403024" transform="translate(111,171)"/>
<path d="M0 0 C0.66 0.33 1.32 0.66 2 1 C0.59070303 4.47132095 -0.90605083 5.88093274 -4.125 7.75 C-4.84945312 8.17796875 -5.57390625 8.6059375 -6.3203125 9.046875 C-6.87460938 9.36140625 -7.42890625 9.6759375 -8 10 C-8.33 8.68 -8.66 7.36 -9 6 C-6.03 4.02 -3.06 2.04 0 0 Z " fill="#543B31" transform="translate(115,32)"/>
<path d="M0 0 C2.64 0.99 5.28 1.98 8 3 C8 3.66 8 4.32 8 5 C4.37 5 0.74 5 -3 5 C-1 1 -1 1 0 0 Z " fill="#56382E" transform="translate(146,152)"/>
<path d="M0 0 C0.99 0.66 1.98 1.32 3 2 C3 2.99 3 3.98 3 5 C1.1128125 4.7525 1.1128125 4.7525 -0.8125 4.5 C-3.26456585 4.17841759 -5.51650694 4 -8 4 C-8 3.01 -8 2.02 -8 1 C-5.22899606 -0.38550197 -3.0665294 -0.1877467 0 0 Z " fill="#57392F" transform="translate(111,91)"/>
<path d="M0 0 C0.66 0 1.32 0 2 0 C1.50769231 7.50769231 1.50769231 7.50769231 -1.0625 10 C-2.0215625 10.495 -2.0215625 10.495 -3 11 C-2.88590407 9.54077307 -2.75834456 8.08259402 -2.625 6.625 C-2.55539063 5.81289062 -2.48578125 5.00078125 -2.4140625 4.1640625 C-2 2 -2 2 0 0 Z " fill="#7B5C46" transform="translate(146,170)"/>
<path d="M0 0 C0 0.99 0 1.98 0 3 C-1.093125 2.979375 -2.18625 2.95875 -3.3125 2.9375 C-6.94384191 2.81455548 -6.94384191 2.81455548 -10 4 C-9.625 2.0625 -9.625 2.0625 -9 0 C-5.93109813 -1.53445094 -3.29905734 -0.54984289 0 0 Z " fill="#4E322A" transform="translate(137,92)"/>
<path d="M0 0 C0.33 0 0.66 0 1 0 C0.98839844 0.91523438 0.97679687 1.83046875 0.96484375 2.7734375 C0.95582031 3.96195313 0.94679687 5.15046875 0.9375 6.375 C0.92589844 7.55835938 0.91429687 8.74171875 0.90234375 9.9609375 C0.78533407 12.91921521 0.78533407 12.91921521 2 15 C0.68 15 -0.64 15 -2 15 C-2.21755666 9.5610835 -2.10428384 5.12919186 0 0 Z " fill="#8A6851" transform="translate(142,182)"/>
<path d="M0 0 C0.99 0 1.98 0 3 0 C3 3.63 3 7.26 3 11 C2.34 11 1.68 11 1 11 C1 8.36 1 5.72 1 3 C0.34 3 -0.32 3 -1 3 C-0.67 2.01 -0.34 1.02 0 0 Z " fill="#422B25" transform="translate(59,145)"/>
<path d="M0 0 C4.455 0.99 4.455 0.99 9 2 C9 2.66 9 3.32 9 4 C6.03 4 3.06 4 0 4 C0 2.68 0 1.36 0 0 Z " fill="#76B55D" transform="translate(143,126)"/>
<path d="M0 0 C0.33 0.99 0.66 1.98 1 3 C-0.65 4.65 -2.3 6.3 -4 8 C-4.99 7.67 -5.98 7.34 -7 7 C-2.25 1.125 -2.25 1.125 0 0 Z " fill="#412B23" transform="translate(139,131)"/>
<path d="M0 0 C0.33 0 0.66 0 1 0 C1.19672365 1.72814161 1.38196799 3.45759197 1.5625 5.1875 C1.66691406 6.15042969 1.77132812 7.11335937 1.87890625 8.10546875 C1.99758751 10.94233377 1.67765639 13.25423671 1 16 C0.01 15.67 -0.98 15.34 -2 15 C-1.34 10.05 -0.68 5.1 0 0 Z " fill="#A7C793" transform="translate(62,148)"/>
<path d="M0 0 C0.33 1.32 0.66 2.64 1 4 C1.66 4 2.32 4 3 4 C2.67 5.98 2.34 7.96 2 10 C0.68 10.33 -0.64 10.66 -2 11 C-1.34 7.37 -0.68 3.74 0 0 Z " fill="#543A28" transform="translate(88,112)"/>
<path d="M0 0 C0.33 0.99 0.66 1.98 1 3 C-0.62339805 4.70884005 -2.29319053 6.37446717 -4 8 C-4.66 8 -5.32 8 -6 8 C-4.73058503 4.08597051 -3.48832306 2.20927127 0 0 Z " fill="#4A332E" transform="translate(206,157)"/>
<path d="M0 0 C-0.99 0.66 -1.98 1.32 -3 2 C-3.680625 2.53625 -4.36125 3.0725 -5.0625 3.625 C-7 5 -7 5 -9 5 C-8.1875 2.5625 -8.1875 2.5625 -7 0 C-3.86650268 -1.04449911 -3.01031744 -0.93423645 0 0 Z " fill="#544030" transform="translate(59,105)"/>
<path d="M0 0 C0.99 0.33 1.98 0.66 3 1 C2.34 3.31 1.68 5.62 1 8 C0.01 8 -0.98 8 -2 8 C-1.125 2.25 -1.125 2.25 0 0 Z " fill="#8A6851" transform="translate(160,100)"/>
<path d="M0 0 C0.66 0.33 1.32 0.66 2 1 C0.70700306 3.88437779 -0.65941363 5.87219421 -3 8 C-3.99 7.67 -4.98 7.34 -6 7 C-4.02 4.69 -2.04 2.38 0 0 Z " fill="#4D3225" transform="translate(105,39)"/>
<path d="M0 0 C1.98 0 3.96 0 6 0 C6.33 0.99 6.66 1.98 7 3 C4.69 3 2.38 3 0 3 C0 2.01 0 1.02 0 0 Z " fill="#452A25" transform="translate(145,160)"/>
<path d="M0 0 C0 0.33 0 0.66 0 1 C-1.11375 1.103125 -2.2275 1.20625 -3.375 1.3125 C-4.57125 1.539375 -5.7675 1.76625 -7 2 C-7.99 3.485 -7.99 3.485 -9 5 C-9.99 4.67 -10.98 4.34 -12 4 C-8.41084094 -0.78554541 -5.58334594 -0.37222306 0 0 Z " fill="#645049" transform="translate(208,153)"/>
</svg>
